<svg version="1.1" id="Layer_1" xmlns="http://www.w3.org/2000/svg" xmlns:xlink="http://www.w3.org/1999/xlink" x="0px" y="0px"
	 width="100%" viewBox="0 0 640 768" enable-background="new 0 0 640 768" xml:space="preserve">
<path fill="#000000" opacity="1.000000" stroke="none" 
	d="
M508.054565,508.122589 
	C475.390137,527.207581 442.388824,544.983521 410.395905,564.500366 
	C392.341553,575.514221 375.182953,587.936218 356.897308,598.606689 
	C353.183716,600.773743 350.586853,600.685181 346.969208,598.324768 
	C327.436035,585.579956 307.986420,572.733826 289.269196,558.794678 
	C269.686157,544.210754 252.012100,527.589905 235.696762,509.469238 
	C233.687439,507.237579 233.375305,504.847839 234.053101,502.065613 
	C243.882996,461.715637 264.582855,427.464569 292.736725,397.392456 
	C296.092499,393.807983 300.278015,391.342529 304.571777,389.133118 
	C323.272736,379.510376 341.027985,368.386169 358.010101,355.991791 
	C363.293152,352.136017 367.131165,347.546539 368.747559,340.955322 
	C375.282440,314.307617 381.531006,287.572327 388.882874,261.146942 
	C397.219360,231.182526 405.435516,201.080124 417.984467,172.529877 
	C425.666168,155.053177 437.340424,140.308197 453.434998,129.487045 
	C454.538116,128.745361 455.675690,128.040161 456.858429,127.438232 
	C457.406982,127.159065 458.102631,127.168915 458.615875,127.070038 
	C459.922821,128.377914 459.267792,129.385239 458.456299,130.262192 
	C452.134857,137.093887 448.191620,145.341843 444.226105,153.623810 
	C440.631561,161.130981 436.779266,168.523224 432.783997,175.825714 
	C431.291260,178.554077 431.463043,180.260391 434.023590,182.106689 
	C467.396179,206.169815 498.663239,233.074326 532.780762,256.088104 
	C546.394287,265.271057 553.745728,278.345367 561.200439,291.988922 
	C572.188171,312.098633 579.847961,333.496368 582.639343,356.010071 
	C588.580444,403.928192 579.260864,447.812531 544.285950,483.751526 
	C535.647156,492.628418 524.951843,498.366211 514.335205,504.290985 
	C512.301208,505.426056 510.355469,506.719330 508.054565,508.122589 
M551.613831,306.834839 
	C543.388489,289.278992 533.815979,272.827362 515.906311,263.189819 
	C515.328003,262.878662 514.852539,262.378357 514.323059,261.974213 
	C488.504089,242.266998 462.686371,222.558228 436.862946,202.856903 
	C433.205017,200.066162 429.519257,197.311905 425.262299,194.100067 
	C407.976227,242.453705 396.950684,291.697693 384.451385,342.065399 
	C401.809570,336.954498 417.843933,335.327942 433.779999,333.073029 
	C437.813904,332.502228 441.278351,332.714172 444.406830,335.678528 
	C466.294952,356.418396 487.920929,377.421722 508.433350,399.535370 
	C510.744934,402.027405 512.147217,402.180634 514.305481,399.494141 
	C519.828857,392.618896 525.502991,385.862579 531.205933,379.134277 
	C540.898560,367.698944 550.607239,356.276306 560.425110,344.948822 
	C563.210571,341.735107 563.876709,338.730682 562.308289,334.544861 
	C558.921509,325.506073 556.008972,316.290283 551.613831,306.834839 
M383.602753,427.936951 
	C392.036041,451.484711 406.713165,470.443817 426.061584,486.039917 
	C431.771942,490.642822 437.519165,494.557373 445.405701,492.644043 
	C447.824402,492.057251 450.340454,491.878571 452.770294,491.329071 
	C455.973053,490.604797 458.701721,489.010101 460.301941,486.030243 
	C471.950409,464.338531 478.232086,441.500702 476.631866,416.560089 
	C475.491455,398.786041 468.617340,383.844971 457.414429,370.440491 
	C452.064697,364.039459 446.097534,358.228180 440.545868,352.033234 
	C437.496063,348.630066 434.101990,347.673065 429.862457,348.370270 
	C414.922546,350.827087 400.181061,354.185699 385.515717,357.924103 
	C381.833893,358.862640 379.996643,360.867279 379.305969,364.682068 
	C375.469208,385.874573 376.328918,406.715729 383.602753,427.936951 
M319.334290,489.241760 
	C314.621216,487.139221 309.908905,485.034912 305.194611,482.935089 
	C303.571320,482.212067 301.927277,480.510223 300.145935,481.772400 
	C298.158813,483.180328 299.132507,485.569855 299.546173,487.357910 
	C301.306885,494.968445 303.398132,502.501617 305.269653,510.087524 
	C312.255829,538.404297 326.302277,562.435059 348.415161,581.641052 
	C350.505829,583.456848 351.979858,583.665039 354.489227,582.133667 
	C363.452087,576.664062 372.102631,570.745178 380.778992,564.847412 
	C402.572998,550.032898 424.026611,534.802368 442.540771,515.861572 
	C444.904297,513.443604 447.627930,511.261383 449.044891,507.198090 
	C403.867188,514.252258 361.429108,505.621613 319.334290,489.241760 
M364.353638,488.017914 
	C379.542511,491.929504 394.951385,494.076904 411.007843,494.060608 
	C373.466034,461.678284 357.601196,420.970001 363.128143,370.760742 
	C357.531555,374.644501 353.581848,377.379059 349.638672,380.122925 
	C337.031372,388.895721 323.309357,395.755371 309.984772,403.300354 
	C307.351501,404.791443 304.233856,405.638275 303.214905,409.350403 
	C299.010559,424.667603 297.033966,440.280701 296.158020,456.098022 
	C295.941071,460.016174 297.276428,462.179535 300.752380,463.890320 
	C320.946259,473.829102 341.315857,483.256195 364.353638,488.017914 
M541.273071,391.755402 
	C536.204590,398.156097 530.786804,404.260498 524.945496,409.949738 
	C522.116272,412.705383 522.071045,414.704895 525.156250,417.171997 
	C531.009094,421.852295 536.182800,427.283508 541.643005,432.398102 
	C545.833984,436.323853 549.114868,441.296906 554.545532,444.397614 
	C566.905212,417.925964 571.540100,390.668640 567.356995,360.763184 
	C558.188416,371.663086 549.962708,381.441986 541.273071,391.755402 
z"/>
<path fill="#000000" opacity="1.000000" stroke="none" 
	d="
M28.924011,379.740295 
	C24.703012,356.118927 24.069244,333.109436 31.597157,310.292236 
	C42.721321,276.574707 64.777496,252.299301 96.359116,237.241364 
	C125.787148,223.210220 156.672256,221.212463 188.339508,230.003357 
	C226.893585,240.705994 252.666626,265.386475 268.821228,301.247437 
	C276.293091,317.833923 279.010956,335.588104 282.240936,353.234619 
	C282.500916,354.655121 282.275208,356.164520 282.275208,357.613129 
	C279.740509,358.394897 278.699615,356.766357 277.693054,355.265015 
	C266.954529,339.247406 252.632431,326.842682 237.332962,315.482910 
	C223.105835,304.919373 207.781082,296.177490 191.495361,289.189331 
	C175.058060,282.136047 157.735184,280.738983 140.093414,281.467072 
	C111.150612,282.661530 86.900513,294.535919 67.062317,315.002808 
	C48.709423,333.937286 37.657501,356.764526 34.992599,383.298737 
	C34.846153,384.756897 35.052719,386.348114 33.435112,387.524170 
	C29.335501,386.707642 30.296076,382.719116 28.924011,379.740295 
z"/>
<path fill="#000000" opacity="1.000000" stroke="none" 
	d="
M528.640198,61.538231 
	C530.851624,58.724819 533.043518,57.682781 535.274780,60.845222 
	C542.919495,71.680458 549.325317,83.006172 550.533630,96.659096 
	C551.174316,103.898483 548.273621,109.985367 545.333069,116.127167 
	C543.939209,119.038391 541.786377,117.700378 539.859131,116.613358 
	C529.011902,110.495338 517.453003,106.721664 505.085724,104.900246 
	C495.019501,103.417702 485.581604,105.741501 476.037231,107.963585 
	C461.961945,111.240547 448.199005,115.954475 433.745117,117.482361 
	C416.869293,119.266266 403.890198,111.991394 392.955597,99.786453 
	C385.870300,91.878036 384.838776,82.553093 385.822876,72.677055 
	C386.679993,64.075302 388.165558,55.557171 390.054260,47.119995 
	C391.173492,42.119987 392.251251,41.685192 396.874481,44.519428 
	C409.098846,52.013527 421.535736,59.070942 435.116364,63.878426 
	C436.661163,64.425262 438.105194,65.366135 441.123657,64.975273 
	C437.346741,52.134903 433.483673,39.447498 431.592682,26.162910 
	C434.714325,25.118385 436.860016,26.703817 439.020660,27.650240 
	C453.938660,34.184692 465.555084,45.260006 477.547760,55.817646 
	C480.708435,58.600101 483.283752,62.207851 487.895325,63.790283 
	C489.841736,57.398010 488.003723,51.562027 487.496613,45.727470 
	C487.267181,43.087948 486.658295,40.480274 486.197327,37.862415 
	C485.913116,36.248131 485.120453,34.409462 486.818848,33.275463 
	C488.439148,32.193588 490.081268,33.361179 491.469574,34.171101 
	C499.616516,38.923943 506.987671,44.579834 511.553680,53.095093 
	C514.599121,58.774548 517.357361,64.607956 520.404114,70.691895 
	C524.592712,68.769608 525.678101,64.521629 528.640198,61.538231 
z"/>
<path fill="#000000" opacity="1.000000" stroke="none" 
	d="
M260.558838,389.634583 
	C223.436325,404.194763 190.290009,423.627441 167.860001,457.472015 
	C153.454529,479.208374 146.462753,503.143158 148.200714,529.380127 
	C148.255600,530.208801 148.277145,531.048157 148.207672,531.873535 
	C148.167679,532.348450 147.913361,532.805420 147.778137,533.203796 
	C146.684021,533.871460 145.703705,533.560242 144.931061,532.901367 
	C127.229797,517.806030 113.281715,500.119019 106.619034,477.393463 
	C103.102844,465.400085 106.598755,454.334137 111.222557,443.510712 
	C124.983658,411.298615 150.449417,393.213531 183.294189,384.027557 
	C207.600769,377.229584 232.168213,376.557587 256.995514,380.296356 
	C262.093231,381.064026 267.247345,381.451111 272.360992,382.123810 
	C273.455292,382.267792 274.486664,382.890320 277.045380,383.860504 
	C271.337555,387.276672 265.804596,387.583649 260.558838,389.634583 
z"/>
<path fill="#000000" opacity="1.000000" stroke="none" 
	d="
M107.164703,304.022217 
	C123.857620,295.729034 141.372452,294.550934 159.730484,294.498993 
	C158.246735,298.819458 154.923691,300.049377 152.346863,301.833282 
	C132.667419,315.456970 117.248344,332.935120 105.845703,353.843018 
	C94.225639,375.149567 87.998466,398.084167 86.162682,422.325012 
	C85.007751,437.575195 84.578423,452.795441 84.757042,468.385071 
	C70.196991,451.089294 59.302910,431.680328 57.006062,409.034912 
	C52.479507,364.406097 66.022354,327.630554 107.164703,304.022217 
z"/>
<path fill="#000000" opacity="1.000000" stroke="none" 
	d="
M271.001221,398.703674 
	C274.784424,400.692230 271.541504,402.236572 270.626129,403.175812 
	C255.787521,418.401306 245.362411,436.635834 235.618652,455.209229 
	C226.209366,473.145111 220.590134,492.457428 217.373352,512.465210 
	C215.624313,523.343872 214.865036,534.269043 215.190903,545.278870 
	C215.239258,546.912659 215.610611,548.614075 214.628082,550.197632 
	C212.339264,551.020020 210.836807,549.415405 209.326202,548.256165 
	C190.170395,533.555786 178.854752,513.828857 172.698792,490.829834 
	C171.675293,487.006012 172.218948,483.336273 173.502197,479.579498 
	C179.599289,461.729828 191.688141,448.387390 205.679550,436.488495 
	C220.640747,423.764832 237.553406,414.173340 255.319229,405.986115 
	C260.458069,403.617950 265.556122,401.161255 271.001221,398.703674 
z"/>
<path fill="#000000" opacity="1.000000" stroke="none" 
	d="
M397.758240,588.716980 
	C438.777924,564.749268 479.018036,540.149414 520.052673,517.442871 
	C521.822632,519.527039 521.217957,520.373962 520.560425,521.143066 
	C496.201935,549.634460 472.590149,578.734863 449.506073,608.265198 
	C445.200653,613.772888 441.255432,619.567200 436.268433,624.524536 
	C434.076172,626.703735 431.739868,628.328491 428.447540,628.363831 
	C417.953796,628.476562 407.459259,628.634277 396.969421,628.930786 
	C393.180542,629.037842 390.679718,627.609741 388.992828,624.203674 
	C385.666382,617.487183 382.195068,610.841370 378.705811,604.207275 
	C377.338287,601.607178 377.885284,599.942993 380.497375,598.524292 
	C386.204865,595.424561 391.801910,592.121460 397.758240,588.716980 
z"/>
<path fill="#000000" opacity="1.000000" stroke="none" 
	d="
M219.588104,354.506226 
	C202.200897,350.556396 185.034439,348.312744 167.757019,351.392487 
	C148.560410,354.814331 130.270874,360.691986 116.072487,375.202026 
	C115.252228,376.040253 114.318420,376.757141 112.990341,376.363159 
	C111.349236,375.028961 112.385681,373.623810 112.943619,372.326080 
	C126.442619,340.928772 148.427826,317.188568 177.949219,300.215607 
	C180.288086,298.870880 182.302216,299.229706 184.567154,300.157837 
	C201.893463,307.257874 218.114258,316.189972 233.094955,327.554657 
	C248.059723,338.907318 260.571930,352.678619 273.328217,366.251862 
	C275.096130,368.132965 277.123230,370.036438 276.784790,373.920776 
	C266.845734,371.064911 258.948364,364.116638 248.973816,362.051117 
	C239.219803,360.031219 229.651611,357.113831 219.588104,354.506226 
z"/>
<path fill="#000000" opacity="1.000000" stroke="none" 
	d="
M531.556152,241.733856 
	C516.092346,234.775467 509.512390,222.340393 507.639587,206.547958 
	C505.723206,190.388229 510.053558,176.256058 519.130981,162.798141 
	C527.451721,150.462006 537.827148,139.806091 546.159485,127.545868 
	C547.109314,126.148262 548.433105,125.377243 550.005310,126.110191 
	C561.510803,131.473999 572.589050,137.502396 581.282104,147.063934 
	C581.569153,147.379623 581.520752,148.000320 581.875366,149.572754 
	C566.689575,148.330246 552.216492,151.351593 537.969177,153.392593 
	C536.810608,156.324371 538.564148,157.491379 539.616760,158.879501 
	C548.569336,170.686111 557.729065,182.347610 565.724548,194.840790 
	C569.593628,200.886307 573.062439,207.181335 573.315613,214.643860 
	C573.946899,233.252838 555.312744,248.106232 537.164246,243.463196 
	C535.394043,243.010284 533.657043,242.427734 531.556152,241.733856 
z"/>
<path fill="#000000" opacity="1.000000" stroke="none" 
	d="
M433.115997,700.771301 
	C434.516266,705.021362 437.062469,708.090515 439.486511,711.282959 
	C441.526917,713.970093 444.000183,714.882629 447.262787,714.710999 
	C455.736969,714.265381 464.221283,714.016296 472.698761,713.627991 
	C475.953888,713.478943 478.950104,714.183960 481.822510,715.707764 
	C490.682220,720.407532 498.650604,726.472473 506.946075,732.035645 
	C507.780060,732.594971 508.443207,733.371460 508.166779,734.584534 
	C507.397064,735.735291 506.174072,735.501160 505.030823,735.498962 
	C484.536377,735.459595 464.032837,735.044373 443.551544,735.543213 
	C434.298920,735.768616 426.557495,733.403503 419.673889,727.490784 
	C418.040863,726.088135 416.282074,724.831909 413.743317,722.856323 
	C405.322632,735.309631 392.714752,736.640564 379.307617,735.769409 
	C378.695984,733.551575 380.048126,732.681091 381.124939,731.690613 
	C388.009186,725.358337 395.169037,719.370483 403.618591,715.208191 
	C407.224030,713.432129 408.755066,710.800659 408.626099,706.852661 
	C408.490173,702.692017 408.527832,698.519470 408.667236,694.358093 
	C408.773163,691.194336 407.532440,689.715393 404.355103,688.803955 
	C394.250946,685.905212 384.795471,674.620056 384.543976,665.451172 
	C387.336609,664.937073 389.185547,666.830811 391.049744,668.235474 
	C393.858704,670.352173 396.717896,672.352417 399.921692,673.791443 
	C404.332947,675.772705 405.820923,674.920532 405.647919,670.167847 
	C405.363586,662.356201 405.054199,654.526611 404.222687,646.761536 
	C403.800049,642.814697 405.050293,641.620667 408.720581,641.724487 
	C413.882507,641.870544 419.062103,642.010498 424.212860,641.743042 
	C428.687927,641.510681 430.380798,642.956604 430.319366,647.688721 
	C430.133514,662.007385 429.883881,676.339050 431.162933,690.642944 
	C431.461975,693.987244 431.785675,697.256958 433.115997,700.771301 
z"/>
<path fill="#000000" opacity="1.000000" stroke="none" 
	d="
M497.263245,182.193451 
	C495.810150,188.480026 495.288696,194.432922 495.360992,200.453506 
	C495.389099,202.793655 494.537262,204.961029 491.875122,203.353989 
	C480.177917,196.292877 468.408417,189.280624 461.818542,176.424698 
	C456.927826,166.883652 458.537018,157.637054 462.839569,148.587845 
	C468.821320,136.006866 476.349854,124.887260 490.455109,119.953293 
	C500.839172,116.320976 510.786255,117.996788 520.661743,121.556160 
	C533.321899,126.119209 534.337402,125.095863 524.576416,135.361649 
	C515.677490,144.720810 508.851318,155.586548 502.409912,166.691513 
	C499.712250,171.342270 498.416321,176.541229 497.263245,182.193451 
z"/>
</svg>